<svg width="700" height="140" viewBox="0 0 700 140" fill="none" xmlns="http://www.w3.org/2000/svg">
<path d="M2.91467 109.972V0.0449219H38.5193V10.4879H13.5429V99.5284H38.5193V109.972H2.91467ZM659.748 109.972V99.5284H684.724V10.4879H659.748V0.0449219H695.351V109.972H659.748Z" fill="#333333" fill-opacity="0.6"/>
<path d="M52.3507 103.1L85.4309 6.91406H96.5907L129.671 103.1H117.582L109.212 77.4044H72.81L64.4406 103.1H52.3507ZM76.6631 65.862H105.359L91.0108 22.5785L76.6631 65.862ZM148.552 76.992V17.357H130.086V6.91406H159.712V76.992C159.712 88.168 164.406 93.756 173.794 93.756C182.562 93.756 187.743 88.168 189.338 76.992L199.434 79.0532C198.283 87.206 195.493 93.4352 191.065 97.7408C186.637 102.046 180.879 104.199 173.794 104.199C166 104.199 159.844 101.817 155.327 97.054C150.811 92.1988 148.552 85.5112 148.552 76.992ZM208.351 109.42C208.351 103.1 210.654 98.1528 215.26 94.5804C212.071 91.9236 210.477 88.3968 210.477 83.9996C210.477 80.8852 211.318 78.0912 213.001 75.6184C214.773 73.1448 217.208 71.3128 220.308 70.1216C217.563 66.366 216.19 61.6484 216.19 55.9688C216.19 49.0064 218.404 43.4184 222.832 39.2049C227.261 34.8995 232.929 32.7467 239.837 32.7467C244.532 32.7467 248.916 33.9376 252.99 36.3193L266.939 28.8993L271.988 38.3804L260.695 44.4264C262.555 47.724 263.485 51.5716 263.485 55.9688C263.485 62.9308 261.271 68.5644 256.842 72.87C252.503 77.084 246.834 79.1908 239.837 79.1908C235.232 79.1908 231.113 78.2288 227.482 76.3052C223.408 77.954 221.371 80.3356 221.371 83.4504C221.371 87.2976 224.515 89.2216 230.804 89.2216H248.207C255.381 89.2216 260.917 90.8704 264.814 94.168C268.711 97.3744 270.659 102.092 270.659 108.321C270.659 116.382 267.604 122.382 261.493 126.322C255.469 130.26 248.075 132.23 239.306 132.23C229.475 132.23 221.858 130.26 216.455 126.322C211.053 122.382 208.351 116.749 208.351 109.42ZM249.004 65.7248C251.396 63.3428 252.591 60.0908 252.591 55.9688C252.591 51.8464 251.396 48.5944 249.004 46.2124C246.613 43.8308 243.557 42.64 239.837 42.64C236.117 42.64 233.062 43.8768 230.671 46.3504C228.279 48.732 227.083 51.938 227.083 55.9688C227.083 59.9996 228.279 63.2512 230.671 65.7248C233.062 68.1064 236.117 69.2972 239.837 69.2972C243.557 69.2972 246.613 68.1064 249.004 65.7248ZM259.234 109.42C259.234 102.55 255.469 99.1144 247.942 99.1144H232.132C229.209 99.1144 226.906 98.9316 225.224 98.5652C221.415 100.58 219.511 104.061 219.511 109.008C219.511 113.039 221.282 116.199 224.825 118.49C228.368 120.871 233.195 122.062 239.306 122.062C245.594 122.062 250.465 120.917 253.92 118.627C257.462 116.428 259.234 113.359 259.234 109.42ZM288.477 93.756C282.366 86.7936 279.31 78.366 279.31 68.4728C279.31 58.5796 282.366 50.1516 288.477 43.1896C294.588 36.2277 302.516 32.7467 312.258 32.7467C322 32.7467 329.927 36.2277 336.039 43.1896C342.15 50.1516 345.205 58.5796 345.205 68.4728C345.205 78.366 342.15 86.7936 336.039 93.756C329.927 100.718 322 104.199 312.258 104.199C302.516 104.199 294.588 100.718 288.477 93.756ZM327.802 86.4732C331.787 81.5268 333.78 75.5264 333.78 68.4728C333.78 61.4192 331.787 55.4648 327.802 50.61C323.905 45.6632 318.724 43.1896 312.258 43.1896C305.792 43.1896 300.567 45.6632 296.581 50.61C292.684 55.4648 290.736 61.4192 290.736 68.4728C290.736 75.5264 292.684 81.5268 296.581 86.4732C300.567 91.3284 305.792 93.756 312.258 93.756C318.724 93.756 323.905 91.3284 327.802 86.4732Z" fill="#448C7A"/>
<path d="M353.727 103.1V6.91467H366.215L386.01 60.2288L405.807 6.91467H418.294V103.1H406.603V32.6099L390.395 75.4812H381.626L365.418 32.6099V103.1H353.727ZM432.256 83.176C432.256 75.756 434.874 70.1224 440.095 66.2748C445.413 62.4276 452.896 60.5036 462.549 60.5036H476.101V57.4808C476.101 52.6256 474.724 49.0528 471.982 46.7628C469.236 44.3812 465.469 43.1904 460.689 43.1904C456.968 43.1904 453.65 44.2896 450.726 46.4884C447.892 48.5952 445.942 51.4348 444.879 55.0076L435.048 52.2592C436.556 46.3052 439.654 41.5872 444.345 38.1062C449.044 34.5336 454.489 32.7473 460.689 32.7473C469.104 32.7473 475.613 34.9917 480.219 39.4803C484.914 43.8772 487.262 50.5188 487.262 59.4044V103.1H478.228L476.63 93.344C474.507 96.5504 471.274 99.1608 466.935 101.176C462.592 103.192 457.943 104.2 452.981 104.2C446.871 104.2 441.866 102.367 437.972 98.7032C434.162 94.9476 432.256 89.7716 432.256 83.176ZM476.101 72.5956V70.3972H461.489C455.905 70.3972 451.523 71.5424 448.333 73.8324C445.235 76.1224 443.684 79.2372 443.684 83.176C443.684 86.474 444.659 89.0844 446.608 91.0084C448.646 92.8404 451.345 93.7564 454.71 93.7564C460.113 93.7564 465.028 91.9244 469.456 88.26C473.884 84.596 476.101 79.3744 476.101 72.5956ZM510.393 94.5808C504.99 88.0768 502.287 79.3744 502.287 68.4736C502.287 57.5724 504.99 48.9156 510.393 42.5032C515.881 35.9993 523.41 32.7473 532.975 32.7473C537.225 32.7473 541.17 33.6634 544.801 35.4955C548.429 37.3276 551.31 39.7093 553.433 42.6404V5.81543H564.594V103.1H553.433V93.894C551.31 96.9168 548.386 99.3904 544.666 101.314C541.038 103.238 537.14 104.2 532.975 104.2C523.41 104.2 515.881 100.993 510.393 94.5808ZM548.784 86.886C552.505 82.2144 554.369 76.0764 554.369 68.4736C554.369 60.8704 552.505 54.7784 548.784 50.198C545.153 45.526 540.241 43.1904 534.042 43.1904C527.839 43.1904 522.881 45.526 519.16 50.198C515.529 54.7784 513.711 60.8704 513.711 68.4736C513.711 76.0764 515.529 82.2144 519.16 86.886C522.881 91.4664 527.839 93.7564 534.042 93.7564C540.241 93.7564 545.153 91.4664 548.784 86.886ZM579.755 83.176C579.755 75.756 582.369 70.1224 587.594 66.2748C592.908 62.4276 600.391 60.5036 610.044 60.5036H623.599V57.4808C623.599 52.6256 622.226 49.0528 619.481 46.7628C616.731 44.3812 612.968 43.1904 608.188 43.1904C604.467 43.1904 601.145 44.2896 598.221 46.4884C595.387 48.5952 593.438 51.4348 592.378 55.0076L582.547 52.2592C584.051 46.3052 587.149 41.5872 591.848 38.1062C596.539 34.5336 601.988 32.7473 608.188 32.7473C616.599 32.7473 623.112 34.9917 627.718 39.4803C632.409 43.8772 634.757 50.5188 634.757 59.4044V103.1H625.723L624.129 93.344C622.002 96.5504 618.769 99.1608 614.43 101.176C610.091 103.192 605.442 104.2 600.48 104.2C594.373 104.2 589.369 102.367 585.467 98.7032C581.661 94.9476 579.755 89.7716 579.755 83.176ZM623.599 72.5956V70.3972H608.984C603.404 70.3972 599.022 71.5424 595.831 73.8324C592.734 76.1224 591.183 79.2372 591.183 83.176C591.183 86.474 592.154 89.0844 594.103 91.0084C596.141 92.8404 598.84 93.7564 602.205 93.7564C607.608 93.7564 612.527 91.9244 616.955 88.26C621.383 84.596 623.599 79.3744 623.599 72.5956Z" fill="#D05E45"/>
</svg>
